<svg width="460" height="460" viewBox="0 0 460 460" fill="none" xmlns="http://www.w3.org/2000/svg">
<path d="M171 380L92.6588 429.191C89.329 431.282 85 428.888 85 424.957V380C85 380 160.649 380 171 380Z" fill="#C0652B"/>
<mask id="mask0_96_283" style="mask-type:alpha" maskUnits="userSpaceOnUse" x="0" y="0" width="460" height="380">
<rect width="460" height="380" rx="75" fill="#D9D9D9"/>
</mask>
<g mask="url(#mask0_96_283)">
<path d="M0 75C0 33.5787 33.5786 0 75 0H385C426.421 0 460 33.5786 460 75V305C460 346.421 426.421 380 385 380H75C33.5787 380 0 346.421 0 305V75Z" fill="#C0652B"/>
<path fill-rule="evenodd" clip-rule="evenodd" d="M380.001 75.3312C392.964 74.7732 405.964 75.9402 419.001 78.8312C418.407 79.2952 417.74 79.4622 417.001 79.3312C415.334 79.3312 413.668 79.3312 412.001 79.3312C410.236 78.3702 408.236 78.0362 406.001 78.3312C397.33 77.3312 388.663 76.3312 380.001 75.3312Z" fill="#303C36"/>
<path fill-rule="evenodd" clip-rule="evenodd" d="M420.001 80.3312C420.598 79.6922 421.431 79.3592 422.501 79.3312C430.684 81.0562 437.184 84.5562 442.001 89.8312C443.911 91.5322 445.078 93.6982 445.501 96.3312C446.523 105.828 446.356 111.161 445.001 112.331C445.167 107.32 445 102.32 444.501 97.3312C443.862 94.7192 442.695 92.3852 441.001 90.3312C434.963 85.0902 427.963 81.7572 420.001 80.3312Z" fill="#303C36"/>
<path fill-rule="evenodd" clip-rule="evenodd" d="M444.001 119.331C444.668 125.843 445.334 132.51 446.001 139.331C448.288 142.814 449.621 146.647 450.001 150.831C449.393 154.284 450.726 156.95 454.001 158.831C453.668 159.164 453.334 159.498 453.001 159.831C454.324 160.647 454.99 161.814 455.001 163.331C452.614 160.918 450.447 158.251 448.501 155.331C443.28 143.788 441.78 131.788 444.001 119.331Z" fill="#303C36"/>
<path fill-rule="evenodd" clip-rule="evenodd" d="M273.001 200.331C272.071 207.63 271.405 214.964 271.001 222.331C272.027 233.101 273.694 243.768 276.001 254.331C275.764 255.622 276.097 256.622 277.001 257.331C279.725 272.893 283.392 288.226 288.001 303.331C288.067 303.769 287.9 304.103 287.501 304.331C285.436 299.468 283.769 294.468 282.501 289.331C282.168 289.664 281.835 289.998 281.501 290.331C280.835 288.998 280.168 287.664 279.501 286.331C278.628 280.402 277.628 274.736 276.501 269.331C275.202 269.921 274.369 270.921 274.001 272.331C274.995 276.476 274.328 280.809 272.001 285.331C273.236 287.147 273.236 288.814 272.001 290.331C271.626 288.133 270.959 286.133 270.001 284.331C270.001 283.998 270.001 283.664 270.001 283.331C271.06 280.315 272.06 277.148 273.001 273.831C271.997 270.656 270.997 267.489 270.001 264.331C271.083 264.082 272.417 263.916 274.001 263.831C274.56 259.537 273.727 255.371 271.501 251.331C269.259 233.273 269.592 215.273 272.501 197.331C272.984 198.279 273.151 199.279 273.001 200.331Z" fill="#303C36"/>
<path fill-rule="evenodd" clip-rule="evenodd" d="M288.001 303.331C289.903 307.486 291.57 311.82 293.001 316.331C292.83 317.323 293.163 317.989 294.001 318.331C296.02 327.593 298.853 336.593 302.501 345.331C310.277 354.084 320.11 358.584 332.001 358.831C353.436 360.629 373.436 356.129 392.001 345.331C402.663 340 413.33 334.667 424.001 329.331C431.448 325.772 438.448 321.438 445.001 316.331C446.705 319.686 448.372 323.019 450.001 326.331C448.949 326.182 447.949 326.348 447.001 326.831C447.334 327.164 447.668 327.498 448.001 327.831C446.235 331.84 443.235 334.34 439.001 335.331C438.617 337.76 437.95 340.094 437.001 342.331C436.001 342.331 435.001 342.331 434.001 342.331C432.227 344.949 431.227 347.949 431.001 351.331C429.571 351.41 428.237 351.077 427.001 350.331C423.36 351.643 423.694 352.81 428.001 353.831C421.771 359.528 416.437 365.362 412.001 371.331C396.37 386.632 379.037 399.632 360.001 410.331C360.066 409.893 359.9 409.559 359.501 409.331C357.197 410.899 354.697 412.066 352.001 412.831C345.92 414.328 339.92 415.495 334.001 416.331C333.243 418.812 333.243 421.479 334.001 424.331C297.335 424.331 260.668 424.331 224.001 424.331C248.126 413.278 272.792 403.278 298.001 394.331C302.921 386.159 307.588 377.826 312.001 369.331C308.206 366.595 304.206 364.095 300.001 361.831C296.569 358.789 293.735 355.289 291.501 351.331C285.299 330.892 278.799 310.559 272.001 290.331C273.236 288.814 273.236 287.147 272.001 285.331C274.328 280.809 274.995 276.476 274.001 272.331C274.369 270.921 275.202 269.921 276.501 269.331C277.628 274.736 278.628 280.402 279.501 286.331C280.168 287.664 280.835 288.998 281.501 290.331C281.835 289.998 282.168 289.664 282.501 289.331C283.769 294.468 285.436 299.468 287.501 304.331C287.9 304.103 288.067 303.769 288.001 303.331Z" fill="#303C36"/>
<path fill-rule="evenodd" clip-rule="evenodd" d="M369.001 73.3312C349.917 69.7893 333.251 61.456 319.001 48.3312C309.996 52.6616 302.329 58.6616 296.001 66.3312C294.976 65.9346 294.81 65.268 295.501 64.3312C298.476 61.4353 301.31 58.4353 304.001 55.3312C308.305 53.527 311.472 50.527 313.501 46.3312C314.242 47.4717 315.076 47.4717 316.001 46.3312C318.001 46.9979 320.001 47.6645 322.001 48.3312C326.817 54.1302 332.65 57.1302 339.501 57.3312C343.427 62.0647 348.26 64.2313 354.001 63.8312C352.668 65.6714 352.835 66.1714 354.501 65.3312C354.81 66.5971 355.31 67.7638 356.001 68.8312C361.269 70.4182 366.602 71.7512 372.001 72.8312C371.053 73.3142 370.053 73.4802 369.001 73.3312Z" fill="#303C36"/>
<path fill-rule="evenodd" clip-rule="evenodd" d="M387.001 174.331C387.993 174.159 388.659 174.493 389.001 175.331C387.763 175.641 387.763 176.141 389.001 176.831C404.843 185.53 404.343 188.03 387.501 184.331C385.253 182.224 382.753 182.224 380.001 184.331C378.698 186.799 377.198 189.132 375.501 191.331C375.168 190.998 374.834 190.664 374.501 190.331C373.1 192.023 371.267 192.69 369.001 192.331C369.001 191.331 369.001 190.331 369.001 189.331C365.152 189.329 362.486 187.496 361.001 183.831C361.627 183.081 362.127 182.247 362.501 181.331C362.834 181.664 363.168 181.998 363.501 182.331C364.854 181.146 366.021 179.812 367.001 178.331C368.315 179.144 369.482 180.144 370.501 181.331C371.416 180.503 372.082 179.503 372.501 178.331C374.315 179.591 376.148 179.591 378.001 178.331C376.872 176.302 377.372 175.968 379.501 177.331C381.636 174.375 383.969 174.042 386.501 176.331C386.965 175.737 387.132 175.07 387.001 174.331Z" fill="#303C36"/>
<path fill-rule="evenodd" clip-rule="evenodd" d="M385.001 146.331C386.292 146.094 387.292 146.427 388.001 147.331C387.125 147.2 386.458 147.533 386.001 148.331C387.142 149.256 387.142 150.09 386.001 150.831C389.044 152.927 392.377 153.76 396.001 153.331C396.868 156.058 398.702 158.058 401.501 159.331C403.818 156.649 405.985 156.816 408.001 159.831C405.882 159.838 404.048 161.005 402.501 163.331C398.518 160.532 394.352 159.532 390.001 160.331C389.334 160.331 389.001 159.998 389.001 159.331C384.947 157.491 380.614 156.991 376.001 157.831C369.314 158.562 362.98 160.395 357.001 163.331C357.001 164.331 357.001 165.331 357.001 166.331C356.267 167.539 355.934 168.872 356.001 170.331C360.478 172.008 365.311 173.008 370.501 173.331C371.034 177.684 370.7 178.017 369.501 174.331C368.083 176.832 367.083 176.499 366.501 173.331C366.082 177.683 365.415 178.016 364.501 174.331C364.299 176.087 363.799 177.753 363.001 179.331C361.765 178.585 360.431 178.252 359.001 178.331C359.276 183.051 358.442 183.385 356.501 179.331C356.087 179.788 355.587 180.122 355.001 180.331C354.22 179.102 353.72 177.769 353.501 176.331C352.544 179.21 353.044 181.71 355.001 183.831C354.501 183.998 354.001 184.164 353.501 184.331C351.222 183.44 349.055 182.44 347.001 181.331C343.877 179.107 341.71 176.107 340.501 172.331C339.667 168.33 338.834 164.33 338.001 160.331C338.078 158.532 338.578 156.865 339.501 155.331C343.024 152.93 346.857 151.097 351.001 149.831C350.407 149.367 349.74 149.2 349.001 149.331C349.71 148.427 350.71 148.094 352.001 148.331C352.418 148.955 353.085 149.288 354.001 149.331C364.458 148.085 374.791 147.085 385.001 146.331Z" fill="#303C36"/>
<path fill-rule="evenodd" clip-rule="evenodd" d="M356.001 170.331C366.69 169.494 377.023 170.827 387.001 174.331C387.132 175.07 386.965 175.737 386.501 176.331C383.969 174.042 381.636 174.375 379.501 177.331C377.372 175.968 376.872 176.302 378.001 178.331C376.148 179.591 374.315 179.591 372.501 178.331C372.082 179.503 371.416 180.503 370.501 181.331C369.482 180.144 368.315 179.144 367.001 178.331C366.021 179.812 364.854 181.146 363.501 182.331C363.168 181.998 362.834 181.664 362.501 181.331C362.127 182.247 361.627 183.081 361.001 183.831C362.486 187.496 365.152 189.329 369.001 189.331C369.001 190.331 369.001 191.331 369.001 192.331C371.267 192.69 373.1 192.023 374.501 190.331C374.834 190.664 375.168 190.998 375.501 191.331C377.198 189.132 378.698 186.799 380.001 184.331C382.753 182.224 385.253 182.224 387.501 184.331C404.343 188.03 404.843 185.53 389.001 176.831C387.763 176.141 387.763 175.641 389.001 175.331C394.143 177.135 398.476 180.135 402.001 184.331C402.04 185.414 402.374 186.414 403.001 187.331C398.913 188.316 394.913 187.983 391.001 186.331C387.9 186.139 384.9 185.473 382.001 184.331C375.362 197.318 368.028 197.652 360.001 185.331C356.19 187.931 352.523 187.931 349.001 185.331C348.768 183.769 348.101 182.436 347.001 181.331C349.055 182.44 351.222 183.44 353.501 184.331C354.001 184.164 354.501 183.998 355.001 183.831C353.044 181.71 352.544 179.21 353.501 176.331C353.72 177.769 354.22 179.102 355.001 180.331C355.587 180.122 356.087 179.788 356.501 179.331C358.442 183.385 359.276 183.051 359.001 178.331C360.431 178.252 361.765 178.585 363.001 179.331C363.799 177.753 364.299 176.087 364.501 174.331C365.415 178.016 366.082 177.683 366.501 173.331C367.083 176.499 368.083 176.832 369.501 174.331C370.7 178.017 371.034 177.684 370.501 173.331C365.311 173.008 360.478 172.008 356.001 170.331Z" fill="#303C36"/>
<path fill-rule="evenodd" clip-rule="evenodd" d="M349.001 149.331C349.74 149.2 350.407 149.367 351.001 149.831C346.857 151.097 343.024 152.93 339.501 155.331C338.578 156.865 338.078 158.532 338.001 160.331C338.834 164.33 339.667 168.33 340.501 172.331C341.71 176.107 343.877 179.107 347.001 181.331C348.101 182.436 348.768 183.769 349.001 185.331C338.6 176.797 335.266 166.131 339.001 153.331C342.141 151.425 345.474 150.091 349.001 149.331Z" fill="#303C36"/>
<path fill-rule="evenodd" clip-rule="evenodd" d="M388.001 147.331C390.722 147.794 393.389 148.46 396.001 149.331C398.832 151.248 401.832 152.914 405.001 154.331C409.02 158.352 412.687 162.685 416.001 167.331C413.395 168.483 410.728 168.649 408.001 167.831C402.604 163.968 396.604 161.468 390.001 160.331C394.352 159.532 398.518 160.532 402.501 163.331C404.048 161.005 405.882 159.838 408.001 159.831C405.985 156.816 403.818 156.649 401.501 159.331C398.702 158.058 396.868 156.058 396.001 153.331C392.377 153.76 389.044 152.927 386.001 150.831C387.142 150.09 387.142 149.256 386.001 148.331C386.458 147.533 387.125 147.2 388.001 147.331Z" fill="#303C36"/>
<path fill-rule="evenodd" clip-rule="evenodd" d="M389.001 159.331C377.354 157.63 366.687 159.963 357.001 166.331C357.001 165.331 357.001 164.331 357.001 163.331C362.98 160.395 369.314 158.562 376.001 157.831C380.614 156.991 384.947 157.491 389.001 159.331Z" fill="#303C36"/>
<path fill-rule="evenodd" clip-rule="evenodd" d="M385.001 146.331C374.791 147.085 364.458 148.085 354.001 149.331C353.085 149.288 352.418 148.955 352.001 148.331C362.828 145.365 373.828 144.698 385.001 146.331Z" fill="#303C36"/>
<path fill-rule="evenodd" clip-rule="evenodd" d="M536.001 190.331C536.212 199.031 535.878 207.698 535.001 216.331C534.354 215.557 534.021 214.557 534.001 213.331C534.57 205.506 535.237 197.839 536.001 190.331Z" fill="#303C36"/>
<path fill-rule="evenodd" clip-rule="evenodd" d="M507.001 222.331C507.166 218.649 507 214.983 506.501 211.331C506.403 217.458 505.57 223.458 504.001 229.331C500.289 232.042 497.289 235.375 495.001 239.331C492.774 239.884 490.44 239.884 488.001 239.331C489.039 234.772 491.539 231.105 495.501 228.331C495.903 226.959 496.403 225.626 497.001 224.331C495.701 219.735 495.201 215.069 495.501 210.331C497.357 207.275 499.19 204.275 501.001 201.331C500.87 200.592 501.037 199.925 501.501 199.331C504.296 197.538 506.796 195.371 509.001 192.831C513.78 191.437 516.114 193.271 516.001 198.331C514.989 201.684 512.656 203.35 509.001 203.331C508.456 209.813 507.789 216.146 507.001 222.331Z" fill="#303C36"/>
<path fill-rule="evenodd" clip-rule="evenodd" d="M316.001 179.331C316.001 180.664 316.001 181.998 316.001 183.331C311.165 197.172 306.499 211.172 302.001 225.331C301.696 221.886 301.696 218.22 302.001 214.331C300.679 214.161 299.513 214.494 298.501 215.331C297.121 220.426 295.454 225.426 293.501 230.331C293.002 235.654 292.835 240.987 293.001 246.331C292.28 245.913 291.78 245.247 291.501 244.331C290.835 240.331 290.835 236.331 291.501 232.331C294.239 222.451 297.572 212.784 301.501 203.331C303.086 198.418 303.753 193.418 303.501 188.331C302.83 187.579 301.997 187.245 301.001 187.331C300.335 185.998 299.335 184.998 298.001 184.331C298.061 183.788 298.395 183.455 299.001 183.331C300.53 184.692 302.196 185.859 304.001 186.831C305.395 187.787 306.062 189.12 306.001 190.831C305.541 196.877 303.874 202.544 301.001 207.831C302.217 209.927 303.05 209.76 303.501 207.331C304.501 208.664 305.501 208.664 306.501 207.331C309.194 200.921 310.86 194.254 311.501 187.331C311.835 187.664 312.168 187.998 312.501 188.331C313.529 185.169 314.695 182.169 316.001 179.331Z" fill="#303C36"/>
<path fill-rule="evenodd" clip-rule="evenodd" d="M302.001 225.331C300.252 242.806 307.586 248.139 324.001 241.331C330.557 240.409 336.224 242.076 341.001 246.331C343.495 247.908 345.328 247.241 346.501 244.331C346.501 240.998 346.501 237.664 346.501 234.331C350.38 237.085 351.713 240.752 350.501 245.331C349.434 246.022 348.267 246.522 347.001 246.831C346.807 248.261 346.807 249.761 347.001 251.331C346.001 252.164 345.001 252.998 344.001 253.831C339.746 254.627 335.58 254.46 331.501 253.331C329.096 254.105 326.596 254.605 324.001 254.831C318.283 260.363 311.616 261.697 304.001 258.831C303.03 257.35 301.697 256.516 300.001 256.331C296.897 253.556 294.563 250.223 293.001 246.331C292.835 240.987 293.002 235.654 293.501 230.331C295.454 225.426 297.121 220.426 298.501 215.331C299.513 214.494 300.679 214.161 302.001 214.331C301.696 218.22 301.696 221.886 302.001 225.331Z" fill="#303C36"/>
<path fill-rule="evenodd" clip-rule="evenodd" d="M501.001 201.331C499.19 204.275 497.357 207.275 495.501 210.331C495.201 215.069 495.701 219.735 497.001 224.331C496.403 225.626 495.903 226.959 495.501 228.331C491.539 231.105 489.039 234.772 488.001 239.331C490.44 239.884 492.774 239.884 495.001 239.331C497.289 235.375 500.289 232.042 504.001 229.331C505.57 223.458 506.403 217.458 506.501 211.331C507 214.983 507.166 218.649 507.001 222.331C506.256 229.321 503.256 235.154 498.001 239.831C485.792 243.123 483.458 239.957 491.001 230.331C491.668 230.331 492.001 229.998 492.001 229.331C493.291 228.773 494.124 227.773 494.501 226.331C494.574 220.66 494.574 214.993 494.501 209.331C495.775 205.895 497.942 203.228 501.001 201.331Z" fill="#303C36"/>
<path fill-rule="evenodd" clip-rule="evenodd" d="M345.001 255.331C340.006 256.597 335.006 256.597 330.001 255.331C323.961 258.52 317.628 260.854 311.001 262.331C306.286 262.142 302.619 260.142 300.001 256.331C301.697 256.516 303.03 257.35 304.001 258.831C311.616 261.697 318.283 260.363 324.001 254.831C326.596 254.605 329.096 254.105 331.501 253.331C335.58 254.46 339.746 254.627 344.001 253.831C345.001 252.998 346.001 252.164 347.001 251.331C346.807 249.761 346.807 248.261 347.001 246.831C348.267 246.522 349.434 246.022 350.501 245.331C351.713 240.752 350.38 237.085 346.501 234.331C346.501 237.664 346.501 240.998 346.501 244.331C345.328 247.241 343.495 247.908 341.001 246.331C342.323 246.501 343.49 246.168 344.501 245.331C344.951 241.643 344.784 237.977 344.001 234.331C346.437 232.814 348.603 233.147 350.501 235.331C353.797 243.544 351.964 250.211 345.001 255.331Z" fill="#303C36"/>
<path fill-rule="evenodd" clip-rule="evenodd" d="M348.001 281.331C349.292 281.094 350.292 281.427 351.001 282.331C350.262 282.2 349.595 282.367 349.001 282.831C353.353 283.583 357.686 284.416 362.001 285.331C362.917 287.615 361.917 288.782 359.001 288.831C362.318 289.329 365.651 289.496 369.001 289.331C365.539 290.313 361.872 290.646 358.001 290.331C354.524 289.508 350.857 289.008 347.001 288.831C347.881 287.475 348.215 285.975 348.001 284.331C339.711 284.407 331.378 283.907 323.001 282.831C330.278 280.276 337.778 280.11 345.501 282.331C346.571 282.303 347.404 281.97 348.001 281.331Z" fill="#303C36"/>
<path fill-rule="evenodd" clip-rule="evenodd" d="M371.001 281.331C373.82 284.872 373.154 287.539 369.001 289.331C365.651 289.496 362.318 289.329 359.001 288.831C361.917 288.782 362.917 287.615 362.001 285.331C357.686 284.416 353.353 283.583 349.001 282.831C349.595 282.367 350.262 282.2 351.001 282.331C357.692 282.377 364.358 282.043 371.001 281.331Z" fill="#303C36"/>
<path fill-rule="evenodd" clip-rule="evenodd" d="M317.001 291.331C310.747 291.051 304.747 290.051 299.001 288.331C297.517 287.358 297.017 286.024 297.501 284.331C299.614 282.458 302.114 281.458 305.001 281.331C308.947 281.507 312.614 282.507 316.001 284.331C317.109 283.809 318.275 283.476 319.501 283.331C324.787 284.975 330.287 285.808 336.001 285.831C338.364 286.42 339.364 287.92 339.001 290.331C331.482 290.006 324.149 290.339 317.001 291.331Z" fill="#303C36"/>
<path fill-rule="evenodd" clip-rule="evenodd" d="M326.001 279.331C333.425 279.227 340.758 279.894 348.001 281.331C347.404 281.97 346.571 282.303 345.501 282.331C337.778 280.11 330.278 280.276 323.001 282.831C331.378 283.907 339.711 284.407 348.001 284.331C348.215 285.975 347.881 287.475 347.001 288.831C350.857 289.008 354.524 289.508 358.001 290.331C355.071 291.13 352.071 291.463 349.001 291.331C338.334 291.331 327.668 291.331 317.001 291.331C324.149 290.339 331.482 290.006 339.001 290.331C339.364 287.92 338.364 286.42 336.001 285.831C330.287 285.808 324.787 284.975 319.501 283.331C318.275 283.476 317.109 283.809 316.001 284.331C312.614 282.507 308.947 281.507 305.001 281.331C302.114 281.458 299.614 282.458 297.501 284.331C297.017 286.024 297.517 287.358 299.001 288.331C298.001 288.331 297.001 288.331 296.001 288.331C295.304 284.053 296.971 281.386 301.001 280.331C307.436 280.062 313.77 280.728 320.001 282.331C322.337 281.83 324.337 280.83 326.001 279.331Z" fill="#303C36"/>
<path fill-rule="evenodd" clip-rule="evenodd" d="M488.001 278.331C488.001 279.664 488.001 280.998 488.001 282.331C487.17 294.824 486.67 307.491 486.501 320.331C485.569 305.609 485.902 290.943 487.501 276.331C487.965 276.925 488.132 277.592 488.001 278.331Z" fill="#303C36"/>
<path fill-rule="evenodd" clip-rule="evenodd" d="M470.001 262.331C471.334 262.331 472.668 262.331 474.001 262.331C472.653 263.017 471.486 264.017 470.501 265.331C469.005 280.975 463.172 294.642 453.001 306.331C461.801 292.94 467.467 278.274 470.001 262.331Z" fill="#303C36"/>
<path fill-rule="evenodd" clip-rule="evenodd" d="M340.001 305.331C340.993 305.159 341.659 305.493 342.001 306.331C341.169 307.16 341.502 307.993 343.001 308.831C342.077 309.681 342.077 310.681 343.001 311.831C342.742 313.092 342.075 314.092 341.001 314.831C330.806 321.085 321.306 320.252 312.501 312.331C311.493 310.806 310.993 309.139 311.001 307.331C320.876 307.516 330.543 306.85 340.001 305.331Z" fill="#303C36"/>
<path fill-rule="evenodd" clip-rule="evenodd" d="M340.001 305.331C330.543 306.85 320.876 307.516 311.001 307.331C310.993 309.139 311.493 310.806 312.501 312.331C321.306 320.252 330.806 321.085 341.001 314.831C342.075 314.092 342.742 313.092 343.001 311.831C342.077 310.681 342.077 309.681 343.001 308.831C341.502 307.993 341.169 307.16 342.001 306.331C344.593 307.867 345.593 310.2 345.001 313.331C341.047 316.473 336.714 318.806 332.001 320.331C325.938 320.993 320.272 319.827 315.001 316.831C310.946 314.242 309.613 310.742 311.001 306.331C320.614 305.357 330.281 305.023 340.001 305.331Z" fill="#303C36"/>
<path fill-rule="evenodd" clip-rule="evenodd" d="M453.001 306.331C451.958 308.887 450.291 311.054 448.001 312.831C450.739 314.143 452.073 316.309 452.001 319.331C455.544 318.959 457.711 316.959 458.501 313.331C459.191 312.093 459.691 312.093 460.001 313.331C459.391 314.222 459.058 315.222 459.001 316.331C451.417 327.257 443.417 337.923 435.001 348.331C427.695 356.304 420.028 363.971 412.001 371.331C416.437 365.362 421.771 359.528 428.001 353.831C423.694 352.81 423.36 351.643 427.001 350.331C428.237 351.077 429.571 351.41 431.001 351.331C431.227 347.949 432.227 344.949 434.001 342.331C435.001 342.331 436.001 342.331 437.001 342.331C437.95 340.094 438.617 337.76 439.001 335.331C443.235 334.34 446.235 331.84 448.001 327.831C447.668 327.498 447.334 327.164 447.001 326.831C447.949 326.348 448.949 326.182 450.001 326.331C448.372 323.019 446.705 319.686 445.001 316.331C438.448 321.438 431.448 325.772 424.001 329.331C429.822 325.027 435.822 320.861 442.001 316.831C443.542 315.46 444.876 313.96 446.001 312.331C448.334 310.331 450.668 308.331 453.001 306.331Z" fill="#303C36"/>
<path fill-rule="evenodd" clip-rule="evenodd" d="M468.001 359.331C470.669 352.993 473.336 346.659 476.001 340.331C476.651 338.396 476.984 336.396 477.001 334.331C476.834 320.994 477.001 307.66 477.501 294.331C478.168 309.664 478.168 324.998 477.501 340.331C475.358 347.283 472.192 353.617 468.001 359.331Z" fill="#303C36"/>
<path fill-rule="evenodd" clip-rule="evenodd" d="M468.001 359.331C467.088 360.917 467.088 362.417 468.001 363.831C463.016 368.278 458.85 373.445 455.501 379.331C455.335 380.165 455.168 380.998 455.001 381.831C454.834 382.664 454.668 383.498 454.501 384.331C450.139 388.771 445.639 393.104 441.001 397.331C440.072 398.381 439.406 398.381 439.001 397.331C449.466 385.209 459.132 372.543 468.001 359.331Z" fill="#303C36"/>
<path fill-rule="evenodd" clip-rule="evenodd" d="M484.001 20.8312C465.734 7.85971 445.734 -0.973594 424.001 -5.66879C411.534 -6.86039 399.034 -7.52699 386.501 -7.66879C356.124 -9.99549 330.624 -0.162092 310.001 21.8312C286.844 31.6578 272.344 48.8245 266.501 73.3312C264.915 85.9662 263.748 98.6322 263.001 111.331C263.156 127.952 261.823 144.452 259.001 160.831C260.662 169.957 261.995 179.124 263.001 188.331C259.446 208.321 259.279 228.321 262.501 248.331C265.194 259.962 267.694 271.629 270.001 283.331C271.06 280.315 272.06 277.148 273.001 273.831C271.997 270.656 270.997 267.489 270.001 264.331C271.083 264.082 272.417 263.916 274.001 263.831C274.56 259.537 273.727 255.371 271.501 251.331C269.259 233.273 269.592 215.273 272.501 197.331C272.984 198.279 273.151 199.279 273.001 200.331C273.76 195.359 274.927 190.359 276.501 185.331C279.403 184.682 281.237 186.015 282.001 189.331C285.153 191.085 288.486 191.918 292.001 191.831C293.432 191.366 294.599 190.532 295.501 189.331C295.875 187.34 296.708 185.673 298.001 184.331C298.061 183.788 298.395 183.455 299.001 183.331C300.53 184.692 302.196 185.859 304.001 186.831C305.395 187.787 306.062 189.12 306.001 190.831C305.541 196.877 303.874 202.544 301.001 207.831C302.217 209.927 303.05 209.76 303.501 207.331C304.501 208.664 305.501 208.664 306.501 207.331C309.194 200.921 310.86 194.254 311.501 187.331C311.835 187.664 312.168 187.998 312.501 188.331C313.529 185.169 314.695 182.169 316.001 179.331C317.147 175.52 317.313 171.52 316.501 167.331C313.302 160.924 309.135 155.257 304.001 150.331C302.348 150.171 301.015 149.505 300.001 148.331C291.356 144.885 282.356 143.551 273.001 144.331C273.599 136.979 274.432 129.646 275.501 122.331C277.713 101.852 284.546 83.1862 296.001 66.3312C294.976 65.9346 294.81 65.268 295.501 64.3312C298.476 61.4353 301.31 58.4353 304.001 55.3312C308.305 53.527 311.472 50.527 313.501 46.3312C314.242 47.4717 315.076 47.4717 316.001 46.3312L322.001 48.3312C326.817 54.1302 332.65 57.1302 339.501 57.3312C343.427 62.0647 348.26 64.2313 354.001 63.8312C352.668 65.6714 352.835 66.1714 354.501 65.3312C354.81 66.5971 355.31 67.7638 356.001 68.8312C361.269 70.4182 366.602 71.7512 372.001 72.8312C371.053 73.3142 370.053 73.4802 369.001 73.3312C372.475 74.3562 376.141 75.0232 380.001 75.3312C392.964 74.7732 405.964 75.9402 419.001 78.8312C418.407 79.2952 417.74 79.4622 417.001 79.3312C417.71 80.2352 418.71 80.5682 420.001 80.3312C420.598 79.6922 421.431 79.3592 422.501 79.3312C430.684 81.0562 437.184 84.5562 442.001 89.8312C443.911 91.5322 445.078 93.6982 445.501 96.3312C446.523 105.828 446.356 111.161 445.001 112.331C444.033 114.438 443.699 116.772 444.001 119.331C444.668 125.843 445.334 132.51 446.001 139.331C448.288 142.814 449.621 146.647 450.001 150.831C449.393 154.284 450.726 156.95 454.001 158.831L453.001 159.831C454.324 160.647 454.99 161.814 455.001 163.331L455.001 165.331C458.125 167.555 460.292 170.555 461.501 174.331C463.006 181.709 464.672 189.042 466.501 196.331C467.562 199.393 469.395 201.893 472.001 203.831C474.31 204.587 476.31 204.087 478.001 202.331C482.48 196.684 487.147 191.184 492.001 185.831C493.579 184.737 495.246 183.903 497.001 183.331C498.929 181.357 501.262 179.857 504.001 178.831C514.544 176.517 521.711 180.351 525.501 190.331C527.605 212.505 521.772 232.171 508.001 249.331C508.001 249.998 507.668 250.331 507.001 250.331C498.601 261.36 487.601 265.36 474.001 262.331C472.653 263.017 471.486 264.017 470.501 265.331C469.005 280.975 463.172 294.642 453.001 306.331C451.958 308.887 450.291 311.054 448.001 312.831C450.739 314.143 452.073 316.309 452.001 319.331C455.544 318.959 457.711 316.959 458.501 313.331C459.191 312.093 459.691 312.093 460.001 313.331C460.773 312.137 461.773 311.137 463.001 310.331C466.554 302.894 470.387 295.56 474.501 288.331C475.636 303.744 476.469 319.078 477.001 334.331C476.834 320.994 477.001 307.66 477.501 294.331C478.168 309.664 478.168 324.998 477.501 340.331C475.358 347.283 472.192 353.617 468.001 359.331C467.088 360.917 467.088 362.417 468.001 363.831C463.016 368.278 458.85 373.445 455.501 379.331C455.335 380.165 455.168 380.998 455.001 381.831C454.834 382.664 454.668 383.498 454.501 384.331C450.139 388.771 445.639 393.104 441.001 397.331C440.072 398.381 439.406 398.381 439.001 397.331C431.063 406.606 422.73 415.606 414.001 424.331H588.001V407.331C564.182 397.755 540.848 387.088 518.001 375.331C509.902 362.719 502.402 349.719 495.501 336.331C492.375 333.881 490.042 330.881 488.501 327.331C488.001 312.335 487.834 297.335 488.001 282.331C487.17 294.824 486.67 307.491 486.501 320.331C485.569 305.609 485.902 290.943 487.501 276.331C487.965 276.925 488.132 277.592 488.001 278.331C507.259 270.572 520.759 256.905 528.501 237.331C530.977 230.404 533.144 223.404 535.001 216.331C534.354 215.557 534.021 214.557 534.001 213.331C534.57 205.506 535.237 197.839 536.001 190.331C535.593 185.352 533.927 180.852 531.001 176.831C535.765 159.65 538.432 142.15 539.001 124.331C538.233 123.568 537.733 122.568 537.501 121.331C537.002 117.01 536.835 112.677 537.001 108.331C535.034 108.092 533.2 108.425 531.501 109.331C531.018 108.383 530.852 107.383 531.001 106.331C532.053 106.48 533.053 106.314 534.001 105.831C532.197 104.289 530.53 102.622 529.001 100.831C533.358 93.2152 535.191 93.7152 534.501 102.331C534.285 100.447 533.618 98.7802 532.501 97.3312C532.427 97.7025 532.353 98.0741 532.278 98.4456C532.186 98.9076 532.094 99.3695 532.001 99.8312C532.931 102.075 534.098 104.241 535.501 106.331C536.034 93.3292 533.367 80.9952 527.501 69.3312C527.193 70.1393 526.693 70.8059 526.001 71.3312C526.517 70.073 525.851 69.073 524.001 68.3312C523.503 69.4346 523.17 70.4346 523.001 71.3312C519.664 70.7219 519.331 69.5552 522.001 67.8312C521.45 66.4327 521.117 65.0994 521.001 63.8312C521.668 63.1645 522.334 62.4979 523.001 61.8312C521.33 59.9887 520.33 57.822 520.001 55.3312C510.146 41.6436 498.146 30.1436 484.001 20.8312ZM301.001 172.331C302.49 169.62 301.823 167.62 299.001 166.331C297.073 164.357 294.74 162.857 292.001 161.831C285.015 160.814 278.015 159.981 271.001 159.331C271.15 164.406 271.817 169.406 273.001 174.331C282.031 170.023 291.364 169.357 301.001 172.331Z" fill="#303C36"/>
<path d="M297.39 299.828C298.532 302.364 299.593 304.953 300.571 307.596C300.721 306.125 301.032 304.694 301.462 303.328L301.581 302.975C302.012 301.766 302.662 300.674 303.481 299.74C301.497 299.343 299.535 298.873 297.593 298.331H296.94C297.089 298.831 297.239 299.33 297.39 299.828Z" fill="#F1D19E"/>
<path fill-rule="evenodd" clip-rule="evenodd" d="M453.001 306.331C461.801 292.94 467.467 278.274 470.001 262.331L470.001 252.331L468.89 213.335L466.501 196.331C464.672 189.042 463.006 181.709 461.501 174.331C460.292 170.555 458.125 167.555 455.001 165.331L455.001 163.331C452.614 160.918 450.447 158.251 448.501 155.331C443.28 143.788 441.78 131.788 444.001 119.331C443.699 116.772 444.033 114.438 445.001 112.331C445.167 107.32 445 102.32 444.501 97.3312C443.862 94.7192 442.695 92.3852 441.001 90.3312C434.963 85.0902 427.963 81.7572 420.001 80.3312C418.71 80.5682 417.71 80.2352 417.001 79.3312H412.001C410.236 78.3702 408.236 78.0362 406.001 78.3312C397.33 77.3312 388.663 76.3312 380.001 75.3312C376.141 75.0232 372.475 74.3562 369.001 73.3312C349.917 69.7893 333.251 61.456 319.001 48.3312C309.996 52.6616 302.329 58.6616 296.001 66.3312C284.546 83.1862 277.713 101.852 275.501 122.331L275.112 125.075C274.228 131.48 273.524 137.898 273.001 144.331C282.356 143.551 291.356 144.885 300.001 148.331L300.195 148.545C301.182 149.586 302.451 150.181 304.001 150.331L304.952 151.264C309.652 155.969 313.502 161.325 316.501 167.331L316.642 168.114C317.288 172.02 317.075 175.758 316.001 179.331L316.001 183.331C311.165 197.172 306.499 211.172 302.001 225.331C300.28 242.533 307.359 247.97 323.239 241.642L324.001 241.331C330.557 240.409 336.224 242.076 341.001 246.331C342.323 246.501 343.49 246.168 344.501 245.331C344.951 241.643 344.784 237.977 344.001 234.331C346.437 232.814 348.603 233.147 350.501 235.331C353.797 243.544 351.964 250.211 345.001 255.331C340.006 256.597 335.006 256.597 330.001 255.331C323.961 258.52 317.628 260.854 311.001 262.331C306.286 262.142 302.619 260.142 300.001 256.331C296.897 253.556 294.563 250.223 293.001 246.331C292.28 245.913 291.78 245.247 291.501 244.331C290.835 240.331 290.835 236.331 291.501 232.331C294.239 222.451 297.572 212.784 301.501 203.331C303.086 198.418 303.753 193.418 303.501 188.331C302.83 187.579 301.997 187.245 301.001 187.331C300.335 185.998 299.335 184.998 298.001 184.331C296.708 185.673 295.875 187.34 295.501 189.331C294.599 190.532 293.432 191.366 292.001 191.831C288.486 191.918 285.153 191.085 282.001 189.331C281.237 186.015 279.403 184.682 276.501 185.331C274.927 190.359 273.76 195.359 273.001 200.331C272.071 207.63 271.405 214.964 271.001 222.331C272.027 233.101 273.694 243.768 276.001 254.331C275.764 255.622 276.097 256.622 277.001 257.331C279.725 272.893 283.392 288.226 288.001 303.331C289.903 307.486 291.57 311.82 293.001 316.331C292.83 317.323 293.163 317.989 294.001 318.331L294.389 320.065C296.377 328.717 299.081 337.139 302.501 345.331C310.277 354.084 320.11 358.584 332.001 358.831L333.005 358.91C353.727 360.462 373.102 356.102 391.13 345.832L392.001 345.331L402.663 340C409.774 336.445 416.887 332.889 424.001 329.331C429.822 325.027 435.822 320.861 442.001 316.831C443.542 315.46 444.876 313.96 446.001 312.331C448.334 310.331 450.668 308.331 453.001 306.331ZM311.001 306.331C320.614 305.357 330.281 305.023 340.001 305.331C340.931 305.17 341.575 305.453 341.934 306.18L342.001 306.331L342.24 306.478C344.654 308.014 345.575 310.298 345.001 313.331C341.047 316.473 336.714 318.806 332.001 320.331C325.938 320.993 320.272 319.827 315.001 316.831C310.946 314.242 309.613 310.742 311.001 306.331ZM300.571 307.596C299.593 304.953 298.532 302.364 297.39 299.828C297.239 299.33 297.089 298.831 296.94 298.331H297.593C299.535 298.873 301.497 299.343 303.481 299.74C302.662 300.674 302.012 301.766 301.581 302.975L301.462 303.328C301.032 304.694 300.721 306.125 300.571 307.596ZM320.001 282.331C322.337 281.83 324.337 280.83 326.001 279.331C333.425 279.227 340.758 279.894 348.001 281.331C349.292 281.094 350.292 281.427 351.001 282.331C357.692 282.377 364.358 282.043 371.001 281.331C373.82 284.872 373.154 287.539 369.001 289.331C365.539 290.313 361.872 290.646 358.001 290.331C355.071 291.13 352.071 291.463 349.001 291.331L317.001 291.331C310.747 291.051 304.747 290.051 299.001 288.331L296.001 288.331C295.304 284.053 296.971 281.386 301.001 280.331C307.436 280.062 313.77 280.728 320.001 282.331ZM285.836 256.139C285.851 256.061 285.865 255.973 285.877 255.877C285.864 255.964 285.852 256.052 285.836 256.139ZM352.001 148.331C362.828 145.365 373.828 144.698 385.001 146.331C386.292 146.094 387.292 146.427 388.001 147.331C390.722 147.794 393.389 148.46 396.001 149.331C398.832 151.248 401.832 152.914 405.001 154.331C409.02 158.352 412.687 162.685 416.001 167.331C413.395 168.483 410.728 168.649 408.001 167.831C402.604 163.968 396.604 161.468 390.001 160.331C389.334 160.331 389.001 159.998 389.001 159.331C377.354 157.63 366.687 159.963 357.001 166.331C356.267 167.539 355.934 168.872 356.001 170.331C366.69 169.494 377.023 170.827 387.001 174.331C387.993 174.159 388.659 174.493 389.001 175.331C394.143 177.135 398.476 180.135 402.001 184.331C402.04 185.414 402.374 186.414 403.001 187.331C398.913 188.316 394.913 187.983 391.001 186.331C387.9 186.139 384.9 185.473 382.001 184.331C375.362 197.318 368.028 197.652 360.001 185.331C356.19 187.931 352.523 187.931 349.001 185.331C338.6 176.797 335.266 166.131 339.001 153.331C342.141 151.425 345.474 150.091 349.001 149.331C349.71 148.427 350.71 148.094 352.001 148.331Z" fill="#F1D19E"/>
<path d="M271.001 159.331C278.015 159.981 285.015 160.814 292.001 161.831C294.74 162.857 297.073 164.357 299.001 166.331C301.823 167.62 302.49 169.62 301.001 172.331L300.099 172.063C290.781 169.402 281.748 170.158 273.001 174.331C271.817 169.406 271.15 164.406 271.001 159.331Z" fill="#F1D19E"/>
<path fill-rule="evenodd" clip-rule="evenodd" d="M518.001 375.331C540.848 387.088 564.182 397.755 588.001 407.331V424.331H414.001C422.73 415.606 431.063 406.606 439.001 397.331C449.466 385.209 459.132 372.543 468.001 359.331C470.669 352.993 473.336 346.659 476.001 340.331C476.651 338.396 476.984 336.396 477.001 334.331C476.469 319.078 475.636 303.744 474.501 288.331C470.387 295.56 466.554 302.894 463.001 310.331L466.54 323.001C466.711 326.81 466.863 330.613 466.996 334.411C466.976 335.27 466.847 336.079 466.611 336.863C464.131 342.751 461.649 348.646 459.166 354.543C451.211 366.331 442.603 377.675 433.335 388.574L431.432 390.796L431.404 390.829C423.636 399.905 415.479 408.715 406.932 417.258C404.071 420.118 403.214 424.42 404.762 428.157C406.31 431.895 409.956 434.331 414.001 434.331H588.001C593.524 434.331 598.001 429.854 598.001 424.331V407.331C598.001 403.249 595.52 399.576 591.732 398.053C569.031 388.927 546.778 378.794 524.97 367.662C517.594 356.028 510.734 344.057 504.39 331.749C503.813 330.63 503.031 329.631 502.085 328.804L501.67 328.46L501.329 328.186C500.117 327.179 499.165 326.065 498.425 324.82C498.01 311.489 497.86 298.155 497.977 284.818C516.549 275.663 529.922 260.927 537.8 241.009C537.841 240.906 537.881 240.802 537.918 240.698L538.397 239.347C540.771 232.591 542.863 225.765 544.673 218.87C544.805 218.369 544.898 217.858 544.951 217.342C545.812 208.858 546.174 200.342 546.034 191.798L545.998 190.089C545.997 190.049 545.996 190.01 545.995 189.97C545.993 189.914 545.991 189.857 545.988 189.801L545.968 189.515L545.91 188.879C545.432 184.019 544.048 179.442 541.78 175.223C546.041 158.65 548.449 141.788 548.996 124.651C549.064 122.528 548.453 120.458 547.281 118.727C546.961 115.396 546.867 112.06 546.994 108.713C547.071 106.697 546.541 104.79 545.565 103.172C545.576 89.7638 542.523 76.9446 536.435 64.8381C535.624 63.2248 534.412 61.9004 532.96 60.9543C532.776 58.851 531.93 56.7914 530.409 55.1135C530.155 54.8334 530.018 54.588 529.944 54.1985L529.915 54.0217C529.713 52.4874 529.157 51.0224 528.293 49.7414L528.117 49.4885L527.118 48.1184C516.771 34.0818 504.263 22.221 489.637 12.5696C470.922 -0.691325 450.445 -9.8833 428.27 -14.9636L426.113 -15.4431C425.825 -15.5052 425.536 -15.5551 425.244 -15.5916L424.952 -15.6238L422.563 -15.8455C410.712 -16.9154 398.833 -17.5201 386.925 -17.6629C354.414 -20.066 326.556 -9.6154 304.156 13.4739C279.582 24.5086 263.701 43.491 257.089 69.7248L256.774 71.0119C256.732 71.1889 256.694 71.3672 256.661 71.5461L256.579 72.0852C255.066 84.1356 253.929 96.2143 253.166 108.322L253.019 110.744C253.006 110.971 252.999 111.197 253.001 111.424L253.011 112.926C253.069 128.439 251.781 143.84 249.147 159.134C248.948 160.288 248.953 161.469 249.162 162.621C250.697 171.055 251.945 179.524 252.906 188.028C249.399 208.639 249.305 229.285 252.628 249.921C252.664 250.144 252.708 250.367 252.759 250.587L253.75 254.91C255.972 264.688 258.055 274.492 260.001 284.32V284.331C260.001 285.968 260.404 287.581 261.172 289.027L261.324 289.326C261.669 290.049 261.958 290.927 262.144 292.014L262.216 292.395C262.296 292.774 262.398 293.149 262.522 293.517C269.288 313.651 275.759 333.89 281.932 354.235L282.015 354.496C282.217 355.103 282.478 355.689 282.792 356.246L283.324 357.164C286.022 361.722 289.381 365.781 293.369 369.316C293.947 369.827 294.581 370.27 295.26 370.636L296.687 371.419C297.427 371.833 298.158 372.257 298.882 372.687C296.413 377.214 293.872 381.695 291.252 386.125C266.95 394.858 243.144 404.561 219.836 415.24C215.562 417.198 213.229 421.87 214.231 426.463C215.233 431.056 219.3 434.331 224.001 434.331H334.001C337.107 434.331 340.036 432.889 341.929 430.427C343.188 428.79 343.892 426.825 343.989 424.81C347.438 424.155 350.906 423.399 354.392 422.541C354.505 422.513 354.618 422.483 354.731 422.451L355.426 422.246C357.132 421.726 358.784 421.083 360.38 420.323C361.938 420.264 363.489 419.842 364.901 419.049L360.001 410.331C360.066 409.893 359.9 409.559 359.501 409.331C357.197 410.899 354.697 412.066 352.001 412.831C345.92 414.328 339.92 415.495 334.001 416.331C333.243 418.812 333.243 421.479 334.001 424.331H224.001C248.126 413.278 272.792 403.278 298.001 394.331C302.921 386.159 307.588 377.826 312.001 369.331C308.206 366.595 304.206 364.095 300.001 361.831C296.569 358.789 293.735 355.289 291.501 351.331C285.299 330.892 278.799 310.559 272.001 290.331C271.626 288.133 270.959 286.133 270.001 284.331V283.331C267.694 271.629 265.194 259.962 262.501 248.331C259.279 228.321 259.446 208.321 263.001 188.331C261.995 179.124 260.662 169.957 259.001 160.831C261.823 144.452 263.156 127.952 263.001 111.331C263.701 99.4258 264.77 87.5494 266.208 75.7004L266.501 73.3312C272.344 48.8245 286.844 31.6578 310.001 21.8312C330.624 -0.162092 356.124 -9.99549 386.501 -7.66879C399.034 -7.52699 411.534 -6.86039 424.001 -5.66879L426.034 -5.21657C446.983 -0.417549 466.305 8.26503 484.001 20.8312C498.146 30.1436 510.146 41.6436 520.001 55.3312L520.071 55.7942C520.458 58.0914 521.435 60.1038 523.001 61.8312C522.696 62.1361 522.391 62.4411 522.087 62.7461C521.725 63.1078 521.363 63.4695 521.001 63.8312C521.117 65.0994 521.45 66.4327 522.001 67.8312C519.331 69.5552 519.664 70.7219 523.001 71.3312C523.17 70.4346 523.503 69.4346 524.001 68.3312C525.851 69.073 526.517 70.073 526.001 71.3312C526.693 70.8059 527.193 70.1393 527.501 69.3312C533.367 80.9952 536.034 93.3292 535.501 106.331C534.098 104.241 532.931 102.075 532.001 99.8312C532.094 99.3695 532.186 98.9076 532.278 98.4456L532.349 98.0945L532.364 98.0186C532.41 97.7894 532.455 97.5602 532.501 97.3312C533.618 98.7802 534.285 100.447 534.501 102.331C535.191 93.7152 533.358 93.2152 529.001 100.831C530.53 102.622 532.197 104.289 534.001 105.831C533.053 106.314 532.053 106.48 531.001 106.331C530.852 107.383 531.018 108.383 531.501 109.331C533.2 108.425 535.034 108.092 537.001 108.331C536.835 112.677 537.002 117.01 537.501 121.331C537.733 122.568 538.233 123.568 539.001 124.331C538.432 142.15 535.765 159.65 531.001 176.831C533.927 180.852 535.593 185.352 536.001 190.331C536.212 199.031 535.878 207.698 535.001 216.331L534.29 218.98C532.598 225.153 530.668 231.27 528.501 237.331L528.134 238.244C520.336 257.331 506.958 270.693 488.001 278.331V282.331C487.834 297.335 488.001 312.335 488.501 327.331C490.042 330.881 492.375 333.881 495.501 336.331L496.802 338.837C503.342 351.343 510.408 363.507 518.001 375.331ZM352.001 148.331C362.828 145.365 373.828 144.698 385.001 146.331C386.292 146.094 387.292 146.427 388.001 147.331C390.722 147.794 393.389 148.46 396.001 149.331C398.832 151.248 401.832 152.914 405.001 154.331C409.02 158.352 412.687 162.685 416.001 167.331C413.395 168.483 410.728 168.649 408.001 167.831C402.604 163.968 396.604 161.468 390.001 160.331C389.334 160.331 389.001 159.998 389.001 159.331C377.354 157.63 366.687 159.963 357.001 166.331C356.267 167.539 355.934 168.872 356.001 170.331C366.69 169.494 377.023 170.827 387.001 174.331C387.993 174.159 388.659 174.493 389.001 175.331C394.143 177.135 398.476 180.135 402.001 184.331C402.04 185.414 402.374 186.414 403.001 187.331C398.913 188.316 394.913 187.983 391.001 186.331C387.9 186.139 384.9 185.473 382.001 184.331C375.362 197.318 368.028 197.652 360.001 185.331C356.19 187.931 352.523 187.931 349.001 185.331C338.6 176.797 335.266 166.131 339.001 153.331C342.141 151.425 345.474 150.091 349.001 149.331C349.71 148.427 350.71 148.094 352.001 148.331ZM546.211 117.406L546.222 117.418C546.202 117.397 546.182 117.376 546.162 117.355L546.138 117.329L546.199 117.392L546.205 117.398L546.211 117.406Z" fill="white"/>
<path d="M412.001 371.331C396.37 386.632 379.037 399.632 360.001 410.331L364.901 419.049C384.662 407.943 402.665 394.446 418.895 378.575C427.084 371.059 434.913 363.23 442.374 355.087L442.579 354.856C442.618 354.811 442.656 354.766 442.694 354.72C442.722 354.687 442.75 354.653 442.778 354.618L444.379 352.629C452.115 342.973 459.501 333.096 466.54 323.001L463.001 310.331C461.773 311.137 460.773 312.137 460.001 313.331C459.391 314.222 459.058 315.222 459.001 316.331L457.575 318.377C450.416 328.59 442.891 338.574 435.001 348.331C427.695 356.304 420.028 363.971 412.001 371.331Z" fill="#F1D19E"/>
<path fill-rule="evenodd" clip-rule="evenodd" d="M352.001 148.331C362.828 145.365 373.828 144.698 385.001 146.331C386.292 146.094 387.292 146.427 388.001 147.331C390.722 147.794 393.389 148.46 396.001 149.331C398.832 151.248 401.832 152.914 405.001 154.331C409.02 158.352 412.687 162.685 416.001 167.331C413.395 168.483 410.728 168.649 408.001 167.831C402.604 163.968 396.604 161.468 390.001 160.331C389.334 160.331 389.001 159.998 389.001 159.331C377.354 157.63 366.687 159.963 357.001 166.331C356.267 167.539 355.934 168.872 356.001 170.331C366.69 169.494 377.023 170.827 387.001 174.331C387.993 174.159 388.659 174.493 389.001 175.331C394.143 177.135 398.476 180.135 402.001 184.331C402.04 185.414 402.374 186.414 403.001 187.331C398.913 188.316 394.913 187.983 391.001 186.331C387.9 186.139 384.9 185.473 382.001 184.331C375.362 197.318 368.028 197.652 360.001 185.331C356.19 187.931 352.523 187.931 349.001 185.331C338.6 176.797 335.266 166.131 339.001 153.331C342.141 151.425 345.474 150.091 349.001 149.331C349.71 148.427 350.71 148.094 352.001 148.331Z" fill="#303C36"/>
<path d="M140.26 37.6569C141.034 35.0064 143.811 33.4854 146.461 34.2594L146.941 34.4059C150.131 35.4206 152.389 36.9909 153.978 38.7282C162.554 38.2333 169.491 38.9245 175.201 41.3287C181.083 43.8056 185.168 47.8842 188.385 53.1715C199.65 56.5886 207.5 61.6675 211.815 68.6608C215.781 75.0882 216.269 82.3198 214.776 89.6158C222.903 95.1622 227.658 101.861 229.129 109.941C230.607 118.058 228.602 126.76 225.015 135.779C230.569 148.258 230.101 158.69 226.674 166.9C223.746 173.916 218.841 178.872 214.65 181.983C214.721 194.56 209.815 203.505 202.707 209.152C196.231 214.297 188.274 216.432 181.485 216.493C173.665 226.259 164.13 230.052 154.806 229.579L155.313 219.591C161.589 219.91 168.679 217.373 174.987 208.512L176.631 206.202L179.458 206.427C184.643 206.842 191.362 205.394 196.488 201.322C201.372 197.441 205.274 190.822 204.57 179.728L204.381 176.753L206.91 175.171C210.348 173.022 214.968 168.984 217.446 163.048C219.757 157.511 220.464 149.718 215.562 139.143L215.07 138.111L214.069 136.068L214.952 133.971C218.843 124.73 220.35 117.546 219.291 111.733C218.296 106.268 214.847 101.107 206.529 96.2242L203.173 94.2545L204.258 90.5172C206.283 83.5439 205.921 78.1512 203.305 73.9117C200.62 69.5607 194.891 65.3189 183.727 62.2311L181.685 61.6657L180.67 59.8063C178.045 54.9942 175.219 52.1867 171.32 50.5446C167.196 48.8082 161.276 48.1191 151.975 48.8942L148.677 49.1696L147.135 46.2409C146.944 45.8773 146.669 45.4871 146.212 45.1071C145.754 44.7257 144.979 44.2438 143.658 43.858L143.412 43.7799C140.914 42.9108 139.511 40.2246 140.26 37.6569ZM155.313 219.591L154.806 229.579C152.048 229.439 149.926 227.089 150.066 224.332C150.206 221.574 152.555 219.451 155.313 219.591ZM112.07 34.4039C116.41 32.8704 122.289 32.496 130.34 33.7672L134.56 34.4332V210.002L133.931 211.134C129.502 219.106 120.25 226.574 109.55 228.766C98.9809 230.932 87.3999 227.859 78.1341 216.287C71.3447 216.226 63.3877 214.091 56.9114 208.946C49.8037 203.299 44.8975 194.354 44.969 181.777C40.7778 178.666 35.8729 173.709 32.9446 166.694C29.5181 158.484 29.0506 148.053 34.6038 135.574C31.017 126.555 29.0122 117.852 30.4905 109.735C31.9622 101.655 36.7163 94.9571 44.8431 89.4108C43.35 82.1144 43.838 74.8824 47.804 68.4547C52.119 61.4615 59.9686 56.3825 71.2327 52.9655C74.4495 47.6776 78.5367 43.5996 84.4192 41.1227C90.129 38.7186 97.0643 38.0274 105.64 38.5221C107.117 36.906 109.186 35.4228 112.07 34.4039ZM105.059 195.206C100.088 195.206 96.0589 199.235 96.0589 204.206C96.0591 209.176 100.089 213.205 105.059 213.206C110.029 213.206 114.059 209.176 114.059 204.206C114.059 199.235 110.029 195.206 105.059 195.206ZM113.059 158.206C109.939 158.206 107.19 159.794 105.576 162.206H87.0589L83.5237 163.671L69.5237 177.671L68.0589 181.206V183.722C65.6474 185.337 64.0589 188.086 64.0589 191.206C64.0591 196.176 68.0886 200.205 73.0589 200.206C78.0293 200.206 82.0587 196.176 82.0589 191.206C82.0589 188.085 80.4709 185.336 78.0589 183.721V183.276L89.1292 172.206H105.576C107.191 174.617 109.939 176.206 113.059 176.206C118.029 176.206 122.059 172.176 122.059 167.206C122.059 162.235 118.029 158.206 113.059 158.206ZM62.0589 104.206C57.0885 104.206 53.0589 108.235 53.0589 113.206C53.0591 117.787 56.4837 121.566 60.9124 122.13L74.9886 136.206L62.8636 148.33C61.2964 147.005 59.2714 146.206 57.0589 146.206C52.0885 146.206 48.0589 150.235 48.0589 155.206C48.0591 160.176 52.0886 164.205 57.0589 164.206C60.518 164.206 63.519 162.252 65.0257 159.39L66.594 158.741L83.1292 142.206H110.559C113.32 142.206 115.559 139.967 115.559 137.206C115.559 134.444 113.32 132.206 110.559 132.206H85.1292L70.1233 117.2C70.7208 115.996 71.0588 114.641 71.0589 113.206C71.0589 108.235 67.0294 104.206 62.0589 104.206ZM73.0589 65.2057C68.0885 65.2059 64.0589 69.2352 64.0589 74.2057C64.059 77.3255 65.6476 80.0736 68.0589 81.6881V90.2057L69.5237 93.7408L88.5237 112.741L92.0589 114.206H104.576C106.191 116.617 108.939 118.206 112.059 118.206C117.029 118.206 121.059 114.176 121.059 109.206C121.059 104.235 117.029 100.206 112.059 100.206C108.939 100.206 106.19 101.794 104.576 104.206H94.1292L78.0589 88.1354V81.6891C80.4707 80.0746 82.0588 77.3259 82.0589 74.2057C82.0589 69.2351 78.0295 65.2057 73.0589 65.2057ZM119.059 44.2057C116.298 44.2059 114.059 46.4444 114.059 49.2057V67.1354L106.059 75.1354L98.4603 67.5367C101.744 66.1949 104.059 62.9721 104.059 59.2057C104.059 54.2351 100.029 50.2057 95.0589 50.2057C90.0885 50.2059 86.0589 54.2352 86.0589 59.2057V67.2057L87.5237 70.7408L102.524 85.7408H109.594L122.594 72.7408L124.059 69.2057V49.2057C124.059 46.4443 121.82 44.2057 119.059 44.2057Z" fill="white"/>
<circle cx="85" cy="302" r="15" fill="white"/>
<circle cx="128" cy="302" r="15" fill="white"/>
<circle cx="171" cy="302" r="15" fill="white"/>
</g>
</svg>
